<svg xmlns="http://www.w3.org/2000/svg" viewBox="0 0 100 100" width="80" height="80" shape-rendering="crispEdges">
  <rect width="100" height="100" fill="white"/>

  <!-- Top-left finder pattern -->
  <rect x="5" y="5" width="28" height="28" fill="#1e293b"/>
  <rect x="9" y="9" width="20" height="20" fill="white"/>
  <rect x="13" y="13" width="12" height="12" fill="#1e293b"/>

  <!-- Top-right finder pattern -->
  <rect x="67" y="5" width="28" height="28" fill="#1e293b"/>
  <rect x="71" y="9" width="20" height="20" fill="white"/>
  <rect x="75" y="13" width="12" height="12" fill="#1e293b"/>

  <!-- Bottom-left finder pattern -->
  <rect x="5" y="67" width="28" height="28" fill="#1e293b"/>
  <rect x="9" y="71" width="20" height="20" fill="white"/>
  <rect x="13" y="75" width="12" height="12" fill="#1e293b"/>

  <!-- Timing patterns -->
  <rect x="37" y="5" width="4" height="4" fill="#1e293b"/>
  <rect x="45" y="5" width="4" height="4" fill="#1e293b"/>
  <rect x="53" y="5" width="4" height="4" fill="#1e293b"/>
  <rect x="61" y="5" width="4" height="4" fill="#1e293b"/>
  <rect x="5" y="37" width="4" height="4" fill="#1e293b"/>
  <rect x="5" y="45" width="4" height="4" fill="#1e293b"/>
  <rect x="5" y="53" width="4" height="4" fill="#1e293b"/>
  <rect x="5" y="61" width="4" height="4" fill="#1e293b"/>

  <!-- Data modules -->
  <rect x="37" y="13" width="4" height="4" fill="#1e293b"/>
  <rect x="45" y="13" width="4" height="4" fill="#1e293b"/>
  <rect x="61" y="13" width="4" height="4" fill="#1e293b"/>
  <rect x="37" y="21" width="4" height="4" fill="#1e293b"/>
  <rect x="53" y="21" width="4" height="4" fill="#1e293b"/>
  <rect x="37" y="29" width="4" height="4" fill="#1e293b"/>
  <rect x="45" y="29" width="4" height="4" fill="#1e293b"/>
  <rect x="53" y="29" width="4" height="4" fill="#1e293b"/>
  <rect x="61" y="29" width="4" height="4" fill="#1e293b"/>

  <rect x="37" y="37" width="4" height="4" fill="#1e293b"/>
  <rect x="45" y="37" width="4" height="4" fill="#1e293b"/>
  <rect x="53" y="37" width="4" height="4" fill="#1e293b"/>
  <rect x="61" y="37" width="4" height="4" fill="#1e293b"/>
  <rect x="69" y="37" width="4" height="4" fill="#1e293b"/>
  <rect x="77" y="37" width="4" height="4" fill="#1e293b"/>
  <rect x="85" y="37" width="4" height="4" fill="#1e293b"/>
  <rect x="93" y="37" width="4" height="4" fill="#1e293b"/>

  <rect x="37" y="45" width="4" height="4" fill="#1e293b"/>
  <rect x="61" y="45" width="4" height="4" fill="#1e293b"/>
  <rect x="77" y="45" width="4" height="4" fill="#1e293b"/>
  <rect x="93" y="45" width="4" height="4" fill="#1e293b"/>

  <rect x="37" y="53" width="4" height="4" fill="#1e293b"/>
  <rect x="45" y="53" width="4" height="4" fill="#1e293b"/>
  <rect x="53" y="53" width="4" height="4" fill="#1e293b"/>
  <rect x="69" y="53" width="4" height="4" fill="#1e293b"/>
  <rect x="85" y="53" width="4" height="4" fill="#1e293b"/>

  <rect x="37" y="61" width="4" height="4" fill="#1e293b"/>
  <rect x="53" y="61" width="4" height="4" fill="#1e293b"/>
  <rect x="61" y="61" width="4" height="4" fill="#1e293b"/>
  <rect x="77" y="61" width="4" height="4" fill="#1e293b"/>
  <rect x="93" y="61" width="4" height="4" fill="#1e293b"/>

  <rect x="37" y="69" width="4" height="4" fill="#1e293b"/>
  <rect x="45" y="69" width="4" height="4" fill="#1e293b"/>
  <rect x="61" y="69" width="4" height="4" fill="#1e293b"/>
  <rect x="69" y="69" width="4" height="4" fill="#1e293b"/>
  <rect x="85" y="69" width="4" height="4" fill="#1e293b"/>

  <rect x="37" y="77" width="4" height="4" fill="#1e293b"/>
  <rect x="53" y="77" width="4" height="4" fill="#1e293b"/>
  <rect x="69" y="77" width="4" height="4" fill="#1e293b"/>
  <rect x="77" y="77" width="4" height="4" fill="#1e293b"/>
  <rect x="93" y="77" width="4" height="4" fill="#1e293b"/>

  <rect x="37" y="85" width="4" height="4" fill="#1e293b"/>
  <rect x="45" y="85" width="4" height="4" fill="#1e293b"/>
  <rect x="53" y="85" width="4" height="4" fill="#1e293b"/>
  <rect x="61" y="85" width="4" height="4" fill="#1e293b"/>
  <rect x="77" y="85" width="4" height="4" fill="#1e293b"/>
  <rect x="85" y="85" width="4" height="4" fill="#1e293b"/>

  <rect x="37" y="93" width="4" height="4" fill="#1e293b"/>
  <rect x="53" y="93" width="4" height="4" fill="#1e293b"/>
  <rect x="69" y="93" width="4" height="4" fill="#1e293b"/>
  <rect x="85" y="93" width="4" height="4" fill="#1e293b"/>
  <rect x="93" y="93" width="4" height="4" fill="#1e293b"/>
</svg>
